<svg width="30" height="35" viewBox="0 0 30 35" fill="none" xmlns="http://www.w3.org/2000/svg">
<path d="M7.4668 17.4746L14.9348 0L22.4027 17.4746H7.4668Z" fill="#E0F8FF"/>
<path d="M22.4027 17.4746L14.9348 34.9492L7.4668 17.4746H22.4027Z" fill="#BDEBF7"/>
<path d="M29.8705 8.37554L22.4025 17.4746L14.9346 0L29.8705 8.37554Z" fill="#BDEBF7"/>
<path d="M14.9344 0L7.46641 17.4746L0 8.37554L14.9344 0Z" fill="#B4E3F0"/>
<path d="M0 26.5737L7.46641 17.4746L14.9344 34.9492L0 26.5737Z" fill="#B4E3F0"/>
<path d="M29.8705 26.5737L22.4025 17.4746L14.9346 34.9492L29.8705 26.5737Z" fill="#E0F8FF"/>
<path d="M0 8.37555V26.5737L7.46641 17.4746L0 8.37555Z" fill="#A3D0E6"/>
<path d="M29.8703 8.37555L22.4023 17.4746L29.8703 26.5737V8.37555Z" fill="#B4E3F0"/>
</svg>
