<svg width="45" height="46" viewBox="0 0 45 46" fill="none" xmlns="http://www.w3.org/2000/svg">
<path d="M36.9923 10.745C36.9923 7.60564 35.7593 4.75501 33.5203 2.71823C31.6492 1.01611 29.2025 0 26.9754 0C26.0048 0 25.218 0.804288 25.218 1.79645C25.218 2.78861 26.0048 3.5929 26.9754 3.5929C28.3236 3.5929 29.9755 4.30312 31.1837 5.40227C32.2302 6.35428 33.4776 8.05382 33.4776 10.7452C33.4776 13.1033 31.5584 15.3914 27.7732 17.5459C24.3281 19.507 20.3115 20.7981 17.9117 21.5696C17.3745 21.7423 16.9104 21.8914 16.5619 22.0142C14.844 22.6188 11.1928 23.9041 8.00709 26.1166C6.1549 27.403 4.68612 28.8417 3.64137 30.3926C2.33295 32.3353 1.66943 34.4697 1.66943 36.7366C1.66943 39.0813 2.47435 41.0519 4.06187 42.5932C7.27355 45.7115 12.8337 46.0001 14.78 46.0001C15.1707 46.0001 15.4159 45.9885 15.4671 45.9858C16.4355 45.9349 17.1791 45.0919 17.1307 44.1019C17.0822 43.1121 16.2591 42.3479 15.2888 42.3975C13.6144 42.4811 8.76415 42.2099 6.47756 39.9836C5.60733 39.1359 5.18422 38.0738 5.18422 36.7365C5.18422 29.8187 14.6284 26.4945 17.7066 25.411C18.0104 25.3041 18.4533 25.1617 18.9661 24.9969C24.3603 23.2628 36.9923 19.202 36.9923 10.745Z" fill="white"/>
<path d="M9.75327 11.2276C14.006 11.2276 16.7116 9.05253 19.0985 7.13368C19.7732 6.59134 20.4103 6.07915 21.0819 5.60624C21.8813 5.04349 22.0829 3.92488 21.5324 3.10793C20.9817 2.29072 19.8875 2.08476 19.0883 2.64742C18.325 3.18476 17.6138 3.75665 16.9259 4.30958C14.7065 6.09388 12.7896 7.63484 9.75327 7.63484C5.65754 7.63484 3.51462 4.69781 3.51462 1.79653C3.5147 0.804288 2.7279 0 1.75731 0C0.78672 0 0 0.804288 0 1.79645C0 6.36832 3.4183 11.2276 9.75327 11.2276Z" fill="white"/>
<path d="M43.1097 23.0282C43.1096 23.0282 43.1096 23.0282 43.1097 23.0282C41.898 21.7897 40.2873 21.1077 38.5739 21.1077C36.8606 21.1077 35.2498 21.7896 34.0383 23.0282L25.1541 32.1098C23.3736 33.9299 22.1718 36.226 21.6783 38.7499L20.6831 43.8395C20.5679 44.4284 20.7483 45.0372 21.1637 45.4619C21.4966 45.8021 21.945 45.988 22.4064 45.988C22.521 45.988 22.6363 45.9766 22.7508 45.9531L27.7297 44.9358C30.1988 44.4313 32.4449 43.2027 34.2255 41.3827L43.1096 32.301C44.3211 31.0626 44.9884 29.416 44.9884 27.6646C44.9884 25.9132 44.3212 24.2666 43.1097 23.0282ZM40.6243 29.7605L31.7401 38.8422C30.4521 40.1589 28.8272 41.0478 27.0409 41.4127L24.6463 41.9019L25.125 39.4541C25.482 37.6282 26.3514 35.9671 27.6396 34.6505L36.5238 25.5688C37.0714 25.009 37.7996 24.7006 38.5741 24.7006C39.3486 24.7006 40.0768 25.009 40.6244 25.5689C41.1721 26.1286 41.4737 26.873 41.4737 27.6647C41.4737 28.4564 41.1721 29.2007 40.6243 29.7605Z" fill="white"/>
</svg>
