<svg width="45" height="46" viewBox="0 0 45 46" fill="none" xmlns="http://www.w3.org/2000/svg">
<g clip-path="url(#clip0_507_42)">
<path d="M14.5781 19.8632V35.5574C14.5781 37.5437 14.0086 39.4669 12.9311 41.1195C12.9268 41.1261 12.9225 41.1326 12.9182 41.1391L10.8389 44.2369C10.5184 44.7145 9.98828 44.9999 9.42184 44.9999C8.85539 44.9999 8.32537 44.7145 8.00477 44.2369L5.9255 41.1391C5.92113 41.1326 5.91684 41.1262 5.91256 41.1195C4.83505 39.4669 4.26555 37.5436 4.26555 35.5573V20.1268C4.26555 19.156 5.03507 18.369 5.98434 18.369C6.93361 18.369 7.70313 19.156 7.70313 20.1268V35.5573C7.70313 36.8433 8.07079 38.0888 8.76663 39.1597L9.42192 40.1361L10.0772 39.1598C10.7731 38.0888 11.1407 36.8434 11.1407 35.5574V19.8632C11.1407 18.8923 11.9102 18.1053 12.8595 18.1053C13.8086 18.1054 14.5781 18.8923 14.5781 19.8632ZM44.2539 7.164L41.225 5.03746C41.2186 5.033 41.2123 5.02861 41.2058 5.02423C39.5899 3.92223 37.7094 3.33979 35.7673 3.33979H20.6797C19.7304 3.33979 18.9609 4.1268 18.9609 5.09764C18.9609 6.06849 19.7304 6.8555 20.6797 6.8555H35.7674C37.0248 6.8555 38.2426 7.23151 39.2897 7.94317L40.2443 8.61335L39.2897 9.28353C38.2425 9.99519 37.0247 10.3712 35.7673 10.3712H20.336C19.3867 10.3712 18.6172 11.1582 18.6172 12.1291C18.6172 13.0999 19.3867 13.8869 20.336 13.8869H35.7673C37.7094 13.8869 39.59 13.3045 41.2058 12.2025C41.2122 12.1981 41.2186 12.1937 41.225 12.1892L44.2539 10.0627C44.721 9.7349 45.0001 9.19275 45.0001 8.61343C45.0001 8.03411 44.7209 7.4918 44.2539 7.164ZM16.125 8.30561C16.125 12.2553 12.983 15.4687 9.1211 15.4687C5.25916 15.4687 2.11721 12.2553 2.11721 8.30561C2.11721 6.96684 2.47902 5.71338 3.10662 4.64029L1.50346 3.0007C0.83218 2.31416 0.83218 1.20121 1.50346 0.514839C2.17474 -0.171529 3.26296 -0.171697 3.93408 0.514839L5.53724 2.15435C6.58647 1.51249 7.81217 1.14246 9.1211 1.14246C12.983 1.14254 16.125 4.3559 16.125 8.30561ZM12.6875 8.30561C12.6875 6.29438 11.0876 4.65816 9.1211 4.65816C7.15457 4.65816 5.55471 6.29438 5.55471 8.30561C5.55471 10.3168 7.15457 11.9531 9.1211 11.9531C11.0876 11.9531 12.6875 10.3168 12.6875 8.30561ZM37.0964 36.9167C42.1931 31.7042 45 24.7739 45 17.4022C45 16.4313 44.2305 15.6443 43.2812 15.6443C42.3319 15.6443 41.5624 16.4313 41.5624 17.4022C41.5624 30.681 30.9993 41.4842 18.0155 41.4842C17.0663 41.4842 16.2967 42.2712 16.2967 43.2421C16.2967 44.2129 17.0663 44.9999 18.0155 44.9999C25.2235 44.9999 31.9998 42.1292 37.0964 36.9167Z" fill="white"/>
</g>
<defs>
<clipPath id="clip0_507_42">
<rect width="44.7819" height="45.9603" fill="white"/>
</clipPath>
</defs>
</svg>
