<svg width="45" height="45" viewBox="0 0 45 45" fill="none" xmlns="http://www.w3.org/2000/svg">
<path d="M40.8772 35.4848C38.8378 38.3428 36.07 40.7879 32.9695 42.4206C29.7647 44.108 26.1445 45 22.5 45C10.0935 45 0 34.914 0 22.5C0 18.8628 0.888998 15.2274 2.57091 12.0303C4.19685 8.9398 6.56267 6.22729 9.41258 4.18631C10.2019 3.6209 11.3 3.80271 11.8651 4.59191C12.4304 5.38111 12.2488 6.47931 11.4595 7.04447C6.48538 10.6069 3.51562 16.3991 3.51562 22.4999C3.51562 32.9754 12.0319 41.4843 22.5 41.4843C28.622 41.4843 34.4442 38.4469 38.0057 33.4563C38.5659 32.6633 39.6627 32.4748 40.4556 33.0347C41.2485 33.595 41.4373 34.6918 40.8772 35.4848ZM45 22.5C45 22.9266 44.9877 23.3587 44.9635 23.7837C44.8733 25.3677 44.085 26.8116 42.8007 27.745C41.8874 28.4088 40.8059 28.7546 39.7051 28.7546C39.2559 28.7546 38.8034 28.697 38.3578 28.5799L21.9896 24.2943C21.8889 24.2694 21.4836 24.1452 21.1804 23.842C20.8772 23.5388 20.7347 23.1236 20.7096 23.0258L16.2783 6.69551C15.8621 5.16617 16.1512 3.54773 17.0719 2.25651C17.9971 0.959127 19.4415 0.154418 21.0347 0.0487192C21.521 0.0164364 22.014 0 22.5 0C30.0654 0 35.5907 3.77085 38.4099 6.59007C42.6596 10.8398 45 16.49 45 22.5ZM28.4815 19.0613L40.2496 15.7629C39.5129 13.8282 38.4679 12.0445 37.1758 10.471L28.4815 19.0613ZM25.8107 16.7577L34.7047 7.97022C33.0457 6.57456 31.1455 5.45655 29.0762 4.68994L25.8107 16.7577ZM22.4097 15.8669L25.6799 3.78189C24.6454 3.60665 23.5836 3.51562 22.5 3.51562C22.0914 3.51562 21.6767 3.52944 21.2677 3.55658C20.7308 3.59215 20.2448 3.86239 19.9344 4.29766C19.7547 4.54985 19.4813 5.07682 19.6709 5.77373L22.4097 15.8669ZM41.4844 22.5C41.4844 21.3576 41.383 20.2383 41.1886 19.1509L29.1315 22.5302L39.2499 25.1795C39.7643 25.3146 40.3047 25.213 40.7339 24.9012C41.1613 24.5906 41.4236 24.1105 41.4535 23.584C41.474 23.225 41.4844 22.8603 41.4844 22.5Z" fill="white"/>
<path d="M40.8772 35.4848C38.8378 38.3428 36.07 40.7879 32.9695 42.4206C29.7647 44.108 26.1445 45 22.5 45C10.0935 45 0 34.914 0 22.5C0 18.8628 0.888998 15.2274 2.57091 12.0303C4.19685 8.9398 6.56267 6.22729 9.41258 4.18631C10.2019 3.6209 11.3 3.80271 11.8651 4.59191C12.4304 5.38111 12.2488 6.47931 11.4595 7.04447C6.48538 10.6069 3.51562 16.3991 3.51562 22.4999C3.51562 32.9754 12.0319 41.4843 22.5 41.4843C28.622 41.4843 34.4442 38.4469 38.0057 33.4563C38.5659 32.6633 39.6627 32.4748 40.4556 33.0347C41.2485 33.595 41.4373 34.6918 40.8772 35.4848ZM45 22.5C45 22.9266 44.9877 23.3587 44.9635 23.7837C44.8733 25.3677 44.085 26.8116 42.8007 27.745C41.8874 28.4088 40.8059 28.7546 39.7051 28.7546C39.2559 28.7546 38.8034 28.697 38.3578 28.5799L21.9896 24.2943C21.8889 24.2694 21.4836 24.1452 21.1804 23.842C20.8772 23.5388 20.7347 23.1236 20.7096 23.0258L16.2783 6.69551C15.8621 5.16617 16.1512 3.54773 17.0719 2.25651C17.9971 0.959127 19.4415 0.154418 21.0347 0.0487192C21.521 0.0164364 22.014 0 22.5 0C30.0654 0 35.5907 3.77085 38.4099 6.59007C42.6596 10.8398 45 16.49 45 22.5ZM28.4815 19.0613L40.2496 15.7629C39.5129 13.8282 38.4679 12.0445 37.1758 10.471L28.4815 19.0613ZM25.8107 16.7577L34.7047 7.97022C33.0457 6.57456 31.1455 5.45655 29.0762 4.68994L25.8107 16.7577ZM22.4097 15.8669L25.6799 3.78189C24.6454 3.60665 23.5836 3.51562 22.5 3.51562C22.0914 3.51562 21.6767 3.52944 21.2677 3.55658C20.7308 3.59215 20.2448 3.86239 19.9344 4.29766C19.7547 4.54985 19.4813 5.07682 19.6709 5.77373L22.4097 15.8669ZM41.4844 22.5C41.4844 21.3576 41.383 20.2383 41.1886 19.1509L29.1315 22.5302L39.2499 25.1795C39.7643 25.3146 40.3047 25.213 40.7339 24.9012C41.1613 24.5906 41.4236 24.1105 41.4535 23.584C41.474 23.225 41.4844 22.8603 41.4844 22.5Z" fill="white"/>
</svg>
