<svg width="168" height="41" viewBox="0 0 168 41" fill="none" xmlns="http://www.w3.org/2000/svg">
<path d="M42.8252 20.7767C39.5442 17.7815 34.2008 17.8616 30.915 20.9529L28.4974 23.2273L26.1334 21.0032L30.6255 16.777C34.4854 13.1456 34.4854 7.23523 30.6255 3.60389L29.694 2.72751C27.8213 0.967901 25.3356 0 22.6919 0C20.0482 0 17.5601 0.967901 15.6922 2.72751L14.7607 3.60389C10.9009 7.23523 10.9009 13.1456 14.7607 16.777L19.2528 21.0032L16.8888 23.2273L14.374 20.8614C12.7323 19.3168 10.5774 18.5457 8.42008 18.5457C6.26277 18.5457 4.10789 19.3168 2.46619 20.8614C0.875572 22.3601 0 24.3486 0 26.4651C0 28.5817 0.875572 30.5701 2.46619 32.0666C4.05438 33.5608 6.16791 34.3822 8.42008 34.3822C10.6722 34.3822 12.7858 33.5608 14.374 32.0666L16.8888 29.7006L19.4644 32.1284C20.3254 32.9384 21.4685 33.3869 22.687 33.3869C23.9055 33.3869 25.0511 32.9407 25.9121 32.1307L28.4974 29.6983L30.915 31.9728C32.5396 33.5013 34.7042 34.3433 37.0075 34.3433C39.3107 34.3433 41.2735 33.5631 42.8252 32.149C44.4742 30.6433 45.3838 28.6229 45.3838 26.4628C45.3838 24.3028 44.4742 22.2823 42.8252 20.7767V20.7767ZM10.9349 28.8288C10.2636 29.4604 9.37105 29.8059 8.42008 29.8059C7.46911 29.8059 6.57651 29.4581 5.90524 28.8288C5.23397 28.1996 4.86429 27.3575 4.86429 26.4628C4.86429 25.5682 5.23397 24.7284 5.90524 24.0969C6.57651 23.4653 7.46911 23.1175 8.42008 23.1175C9.37105 23.1175 10.2636 23.4653 10.9349 24.0969L13.4498 26.4628L10.9349 28.8288V28.8288ZM22.6895 28.6915L21.8236 27.8769L20.3254 26.4651L22.6651 24.2616L22.8597 24.4012L25.0511 26.4628L22.6846 28.6892L22.6895 28.6915ZM24.3385 16.2209L22.6943 17.7677L18.2022 13.5415C16.2394 11.6949 16.2394 8.68823 18.2022 6.83938L19.1337 5.963C20.0846 5.06832 21.3494 4.57408 22.6943 4.57408C24.0393 4.57408 25.304 5.06604 26.255 5.963L27.1865 6.83938C29.1492 8.68594 29.1492 11.6926 27.1865 13.5415L24.3385 16.2209V16.2209ZM39.4396 28.8654C38.7708 29.4764 37.8952 29.7784 37.0075 29.7784C36.0541 29.7784 35.091 29.4306 34.3564 28.7396L31.9389 26.4651L34.3564 24.1907C35.7744 22.8567 38.0557 22.7995 39.4396 24.0625C40.1377 24.6986 40.5219 25.5521 40.5219 26.4651C40.5219 27.3781 40.1377 28.2316 39.4396 28.8677V28.8654Z" fill="white"/>
<path d="M76.0155 14.248V16.96H69.0315V21.256H74.3835V23.92H69.0315V31H65.6715V14.248H76.0155ZM81.7581 13.24V31H78.3981V13.24H81.7581ZM97.6298 17.704V31H94.2458V29.32C93.8138 29.896 93.2458 30.352 92.5418 30.688C91.8538 31.008 91.1018 31.168 90.2858 31.168C89.2458 31.168 88.3258 30.952 87.5258 30.52C86.7258 30.072 86.0938 29.424 85.6298 28.576C85.1818 27.712 84.9578 26.688 84.9578 25.504V17.704H88.3178V25.024C88.3178 26.08 88.5818 26.896 89.1098 27.472C89.6378 28.032 90.3578 28.312 91.2698 28.312C92.1978 28.312 92.9258 28.032 93.4538 27.472C93.9818 26.896 94.2458 26.08 94.2458 25.024V17.704H97.6298ZM117.457 17.512C119.089 17.512 120.401 18.016 121.393 19.024C122.401 20.016 122.905 21.408 122.905 23.2V31H119.545V23.656C119.545 22.616 119.281 21.824 118.753 21.28C118.225 20.72 117.505 20.44 116.593 20.44C115.681 20.44 114.953 20.72 114.409 21.28C113.881 21.824 113.617 22.616 113.617 23.656V31H110.257V23.656C110.257 22.616 109.993 21.824 109.465 21.28C108.937 20.72 108.217 20.44 107.305 20.44C106.377 20.44 105.641 20.72 105.097 21.28C104.569 21.824 104.305 22.616 104.305 23.656V31H100.945V17.704H104.305V19.312C104.737 18.752 105.289 18.312 105.961 17.992C106.649 17.672 107.401 17.512 108.217 17.512C109.257 17.512 110.185 17.736 111.001 18.184C111.817 18.616 112.449 19.24 112.897 20.056C113.329 19.288 113.953 18.672 114.769 18.208C115.601 17.744 116.497 17.512 117.457 17.512ZM138.453 24.064C138.453 24.544 138.421 24.976 138.357 25.36H128.637C128.717 26.32 129.053 27.072 129.645 27.616C130.237 28.16 130.965 28.432 131.829 28.432C133.077 28.432 133.965 27.896 134.493 26.824H138.117C137.733 28.104 136.997 29.16 135.909 29.992C134.821 30.808 133.485 31.216 131.901 31.216C130.621 31.216 129.469 30.936 128.445 30.376C127.437 29.8 126.645 28.992 126.069 27.952C125.509 26.912 125.229 25.712 125.229 24.352C125.229 22.976 125.509 21.768 126.069 20.728C126.629 19.688 127.413 18.888 128.421 18.328C129.429 17.768 130.589 17.488 131.901 17.488C133.165 17.488 134.293 17.76 135.285 18.304C136.293 18.848 137.069 19.624 137.613 20.632C138.173 21.624 138.453 22.768 138.453 24.064ZM134.973 23.104C134.957 22.24 134.645 21.552 134.037 21.04C133.429 20.512 132.685 20.248 131.805 20.248C130.973 20.248 130.269 20.504 129.693 21.016C129.133 21.512 128.789 22.208 128.661 23.104H134.973ZM148.274 17.512C149.858 17.512 151.138 18.016 152.114 19.024C153.09 20.016 153.578 21.408 153.578 23.2V31H150.218V23.656C150.218 22.6 149.954 21.792 149.426 21.232C148.898 20.656 148.178 20.368 147.266 20.368C146.338 20.368 145.602 20.656 145.058 21.232C144.53 21.792 144.266 22.6 144.266 23.656V31H140.906V17.704H144.266V19.36C144.714 18.784 145.282 18.336 145.97 18.016C146.674 17.68 147.442 17.512 148.274 17.512ZM158.477 16.12C157.885 16.12 157.389 15.936 156.989 15.568C156.605 15.184 156.413 14.712 156.413 14.152C156.413 13.592 156.605 13.128 156.989 12.76C157.389 12.376 157.885 12.184 158.477 12.184C159.069 12.184 159.557 12.376 159.941 12.76C160.341 13.128 160.541 13.592 160.541 14.152C160.541 14.712 160.341 15.184 159.941 15.568C159.557 15.936 159.069 16.12 158.477 16.12ZM160.133 17.704V31H156.773V17.704H160.133Z" fill="white"/>
</svg>
